<svg width="17" height="17" viewBox="0 0 17 17" fill="none" xmlns="http://www.w3.org/2000/svg">
<path d="M15.3723 4.24248L8.26065 11.1368C7.55246 11.8234 5.45025 12.1414 4.98061 11.6861C4.51097 11.2308 4.83151 9.19283 5.5397 8.50628L12.6589 1.60466C12.8344 1.41898 13.0469 1.26971 13.2837 1.16586C13.5204 1.06201 13.7764 1.00572 14.0362 1.00041C14.2959 0.995115 14.5541 1.04089 14.7951 1.13499C15.0361 1.22909 15.255 1.36958 15.4384 1.54794C15.6219 1.7263 15.7662 1.93884 15.8626 2.17274C15.959 2.40665 16.0056 2.65706 15.9994 2.90888C15.9932 3.1607 15.9344 3.40872 15.8267 3.63792C15.7189 3.86712 15.5644 4.07279 15.3723 4.24248Z" stroke="#191B1C" stroke-width="2" stroke-linecap="round" stroke-linejoin="round"/>
<path d="M7.70913 2.50806H3.98184C3.191 2.50806 2.43261 2.81261 1.8734 3.35473C1.3142 3.89685 1 4.63212 1 5.39879V12.6256C1 13.3923 1.3142 14.1276 1.8734 14.6697C2.43261 15.2118 3.191 15.5164 3.98184 15.5164H12.1819C13.8293 15.5164 14.4183 14.2155 14.4183 12.6256V9.01221" stroke="#191B1C" stroke-width="2" stroke-linecap="round" stroke-linejoin="round"/>
</svg>
